<svg width="406" height="14" viewBox="0 0 406 14" fill="none" xmlns="http://www.w3.org/2000/svg">
<mask id="path-1-inside-1_18_600" fill="white">
<path fill-rule="evenodd" clip-rule="evenodd" d="M10.8353 1.57625C10.8806 1.72607 10.7684 1.87706 10.6119 1.87706H2.73946C2.58293 1.87706 2.47078 1.726 2.51607 1.57617L2.94236 0.165847C2.97213 0.0673689 3.06288 0 3.16575 0H10.1862C10.2891 0 10.3799 0.0674092 10.4096 0.165928L10.8353 1.57625ZM13.2271 3.12258C13.3009 2.96771 13.188 2.78882 13.0164 2.78882H0.339757C0.168202 2.78882 0.0552837 2.96771 0.129083 3.12258L0.801127 4.5329C0.839839 4.61414 0.921811 4.66588 1.0118 4.66588H12.3444C12.4344 4.66588 12.5163 4.61414 12.555 4.5329L13.2271 3.12258ZM3.93373 10.8723C4.05325 10.8723 4.15346 10.782 4.16585 10.6631L4.669 5.83569C4.68336 5.69798 4.57535 5.57812 4.43689 5.57812H2.52246C2.40292 5.57812 2.30272 5.66844 2.29034 5.78733L1.78786 10.6147C1.77353 10.7524 1.88153 10.8723 2.01998 10.8723H3.93373ZM9.07302 10.6631C9.08543 10.782 9.18562 10.8723 9.30513 10.8723H11.216C11.3544 10.8723 11.4624 10.7524 11.4481 10.6147L10.9456 5.78733C10.9332 5.66844 10.833 5.57812 10.7135 5.57812H8.8013C8.66283 5.57812 8.55482 5.698 8.56919 5.83572L9.07302 10.6631ZM13.2112 13.1954C13.2912 13.3507 13.1785 13.5356 13.0038 13.5356H0.233682C0.0589569 13.5356 -0.0538005 13.3507 0.0262323 13.1953L0.688342 11.9104C0.728363 11.8327 0.808418 11.7839 0.895791 11.7839H12.3422C12.4296 11.7839 12.5097 11.8328 12.5497 11.9105L13.2112 13.1954ZM5.17138 10.6174C5.15871 10.7542 5.26637 10.8723 5.40375 10.8723H7.83326C7.97065 10.8723 8.07831 10.7542 8.06564 10.6174L7.61862 5.78998C7.6075 5.66994 7.50679 5.57812 7.38624 5.57812H5.85078C5.73023 5.57812 5.62952 5.66994 5.6184 5.78998L5.17138 10.6174Z"/>
</mask>
<path fill-rule="evenodd" clip-rule="evenodd" d="M10.8353 1.57625C10.8806 1.72607 10.7684 1.87706 10.6119 1.87706H2.73946C2.58293 1.87706 2.47078 1.726 2.51607 1.57617L2.94236 0.165847C2.97213 0.0673689 3.06288 0 3.16575 0H10.1862C10.2891 0 10.3799 0.0674092 10.4096 0.165928L10.8353 1.57625ZM13.2271 3.12258C13.3009 2.96771 13.188 2.78882 13.0164 2.78882H0.339757C0.168202 2.78882 0.0552837 2.96771 0.129083 3.12258L0.801127 4.5329C0.839839 4.61414 0.921811 4.66588 1.0118 4.66588H12.3444C12.4344 4.66588 12.5163 4.61414 12.555 4.5329L13.2271 3.12258ZM3.93373 10.8723C4.05325 10.8723 4.15346 10.782 4.16585 10.6631L4.669 5.83569C4.68336 5.69798 4.57535 5.57812 4.43689 5.57812H2.52246C2.40292 5.57812 2.30272 5.66844 2.29034 5.78733L1.78786 10.6147C1.77353 10.7524 1.88153 10.8723 2.01998 10.8723H3.93373ZM9.07302 10.6631C9.08543 10.782 9.18562 10.8723 9.30513 10.8723H11.216C11.3544 10.8723 11.4624 10.7524 11.4481 10.6147L10.9456 5.78733C10.9332 5.66844 10.833 5.57812 10.7135 5.57812H8.8013C8.66283 5.57812 8.55482 5.698 8.56919 5.83572L9.07302 10.6631ZM13.2112 13.1954C13.2912 13.3507 13.1785 13.5356 13.0038 13.5356H0.233682C0.0589569 13.5356 -0.0538005 13.3507 0.0262323 13.1953L0.688342 11.9104C0.728363 11.8327 0.808418 11.7839 0.895791 11.7839H12.3422C12.4296 11.7839 12.5097 11.8328 12.5497 11.9105L13.2112 13.1954ZM5.17138 10.6174C5.15871 10.7542 5.26637 10.8723 5.40375 10.8723H7.83326C7.97065 10.8723 8.07831 10.7542 8.06564 10.6174L7.61862 5.78998C7.6075 5.66994 7.50679 5.57812 7.38624 5.57812H5.85078C5.73023 5.57812 5.62952 5.66994 5.6184 5.78998L5.17138 10.6174Z" fill="#E198AD"/>
<path d="M5.6184 5.78998L5.48194 5.77734L5.6184 5.78998ZM7.61862 5.78998L7.75508 5.77734L7.61862 5.78998ZM5.17138 10.6174L5.03492 10.6047L5.17138 10.6174ZM8.06564 10.6174L8.2021 10.6047L8.06564 10.6174ZM12.5497 11.9105L12.6715 11.8477L12.5497 11.9105ZM0.688342 11.9104L0.566519 11.8476L0.688342 11.9104ZM13.2112 13.1954L13.0894 13.2582L13.2112 13.1954ZM0.0262323 13.1953L-0.09559 13.1326L0.0262323 13.1953ZM8.56919 5.83572L8.70549 5.82149L8.56919 5.83572ZM10.9456 5.78733L11.0819 5.77315L10.9456 5.78733ZM9.07302 10.6631L8.93672 10.6773L9.07302 10.6631ZM11.4481 10.6147L11.5844 10.6005L11.4481 10.6147ZM4.16585 10.6631L4.02954 10.6489L4.16585 10.6631ZM4.669 5.83569L4.80531 5.8499L4.669 5.83569ZM12.555 4.5329L12.4313 4.47395L12.555 4.5329ZM0.801127 4.5329L0.677411 4.59185L0.801127 4.5329ZM13.2271 3.12258L13.3508 3.18153L13.2271 3.12258ZM0.129083 3.12258L0.00536635 3.18153L0.129083 3.12258ZM10.4096 0.165928L10.2784 0.205533L10.4096 0.165928ZM2.94236 0.165847L2.81118 0.126195L2.94236 0.165847ZM10.8353 1.57625L10.7042 1.61585L10.8353 1.57625ZM2.51607 1.57617L2.64725 1.61582L2.51607 1.57617ZM2.73946 2.01411H10.6119V1.74002H2.73946V2.01411ZM2.81118 0.126195L2.38489 1.53652L2.64725 1.61582L3.07355 0.2055L2.81118 0.126195ZM10.1862 -0.137044H3.16575V0.137044H10.1862V-0.137044ZM10.9665 1.53664L10.5408 0.126323L10.2784 0.205533L10.7042 1.61585L10.9665 1.53664ZM0.339757 2.92586H13.0164V2.65177H0.339757V2.92586ZM0.924843 4.47395L0.252799 3.06363L0.00536635 3.18153L0.677411 4.59185L0.924843 4.47395ZM12.3444 4.52884H1.0118V4.80293H12.3444V4.52884ZM13.1034 3.06363L12.4313 4.47395L12.6788 4.59185L13.3508 3.18153L13.1034 3.06363ZM4.5327 5.82148L4.02954 10.6489L4.30215 10.6773L4.80531 5.8499L4.5327 5.82148ZM2.52246 5.71517H4.43689V5.44108H2.52246V5.71517ZM1.92417 10.6289L2.42665 5.80152L2.15403 5.77315L1.65155 10.6005L1.92417 10.6289ZM3.93373 10.7352H2.01998V11.0093H3.93373V10.7352ZM11.216 10.7352H9.30513V11.0093H11.216V10.7352ZM10.8093 5.80152L11.3118 10.6289L11.5844 10.6005L11.0819 5.77315L10.8093 5.80152ZM8.8013 5.71517H10.7135V5.44108H8.8013V5.71517ZM9.20933 10.6489L8.70549 5.82149L8.43289 5.84995L8.93672 10.6773L9.20933 10.6489ZM0.233682 13.6727H13.0038V13.3986H0.233682V13.6727ZM0.566519 11.8476L-0.09559 13.1326L0.148055 13.2581L0.810164 11.9732L0.566519 11.8476ZM12.3422 11.6469H0.895791V11.921H12.3422V11.6469ZM13.3331 13.1327L12.6715 11.8477L12.4278 11.9732L13.0894 13.2582L13.3331 13.1327ZM7.83326 10.7352H5.40375V11.0093H7.83326V10.7352ZM7.48215 5.80261L7.92918 10.63L8.2021 10.6047L7.75508 5.77734L7.48215 5.80261ZM5.85078 5.71517H7.38624V5.44108H5.85078V5.71517ZM5.30784 10.63L5.75486 5.80261L5.48194 5.77734L5.03492 10.6047L5.30784 10.63ZM5.85078 5.44108C5.65944 5.44108 5.49958 5.58681 5.48194 5.77734L5.75486 5.80261C5.75945 5.75307 5.80102 5.71517 5.85078 5.71517V5.44108ZM7.75508 5.77734C7.73743 5.58681 7.57758 5.44108 7.38624 5.44108V5.71517C7.436 5.71517 7.47757 5.75307 7.48215 5.80261L7.75508 5.77734ZM5.40375 10.7352C5.34705 10.7352 5.30261 10.6865 5.30784 10.63L5.03492 10.6047C5.01481 10.8219 5.18569 11.0093 5.40375 11.0093V10.7352ZM7.83326 11.0093C8.05133 11.0093 8.22221 10.8219 8.2021 10.6047L7.92918 10.63C7.93441 10.6865 7.88997 10.7352 7.83326 10.7352V11.0093ZM12.3422 11.921C12.3783 11.921 12.4113 11.9411 12.4278 11.9732L12.6715 11.8477C12.608 11.7244 12.4809 11.6469 12.3422 11.6469V11.921ZM0.810164 11.9732C0.826683 11.9411 0.859727 11.921 0.895791 11.921V11.6469C0.757108 11.6469 0.630043 11.7244 0.566519 11.8476L0.810164 11.9732ZM13.0038 13.6727C13.281 13.6727 13.46 13.3792 13.3331 13.1327L13.0894 13.2582C13.1224 13.3223 13.0759 13.3986 13.0038 13.3986V13.6727ZM0.233682 13.3986C0.161562 13.3986 0.11502 13.3222 0.148055 13.2581L-0.09559 13.1326C-0.222621 13.3791 -0.0436482 13.6727 0.233682 13.6727V13.3986ZM8.8013 5.44108C8.58152 5.44108 8.41007 5.63135 8.43289 5.84995L8.70549 5.82149C8.69956 5.76465 8.74414 5.71517 8.8013 5.71517V5.44108ZM11.0819 5.77315C11.0623 5.58444 10.9032 5.44108 10.7135 5.44108V5.71517C10.7628 5.71517 10.8042 5.75245 10.8093 5.80152L11.0819 5.77315ZM9.30513 10.7352C9.2558 10.7352 9.21445 10.6979 9.20933 10.6489L8.93672 10.6773C8.95641 10.866 9.11544 11.0093 9.30513 11.0093V10.7352ZM11.216 11.0093C11.4357 11.0093 11.6071 10.8191 11.5844 10.6005L11.3118 10.6289C11.3177 10.6857 11.2731 10.7352 11.216 10.7352V11.0093ZM1.65155 10.6005C1.6288 10.8191 1.80023 11.0093 2.01998 11.0093V10.7352C1.96283 10.7352 1.91825 10.6857 1.92417 10.6289L1.65155 10.6005ZM2.52246 5.44108C2.33273 5.44108 2.17367 5.58444 2.15403 5.77315L2.42665 5.80152C2.43176 5.75245 2.47312 5.71517 2.52246 5.71517V5.44108ZM4.02954 10.6489C4.02443 10.6979 3.98307 10.7352 3.93373 10.7352V11.0093C4.12344 11.0093 4.28249 10.866 4.30215 10.6773L4.02954 10.6489ZM4.80531 5.8499C4.82809 5.63132 4.65665 5.44108 4.43689 5.44108V5.71517C4.49404 5.71517 4.53862 5.76464 4.5327 5.82148L4.80531 5.8499ZM12.3444 4.80293C12.4872 4.80293 12.6173 4.7208 12.6788 4.59185L12.4313 4.47395C12.4154 4.50748 12.3815 4.52884 12.3444 4.52884V4.80293ZM0.677411 4.59185C0.738856 4.7208 0.868965 4.80293 1.0118 4.80293V4.52884C0.974657 4.52884 0.940822 4.50748 0.924843 4.47395L0.677411 4.59185ZM13.0164 2.92586C13.0872 2.92586 13.1338 2.9997 13.1034 3.06363L13.3508 3.18153C13.4679 2.93572 13.2887 2.65177 13.0164 2.65177V2.92586ZM0.339757 2.65177C0.0674578 2.65177 -0.11177 2.93572 0.00536635 3.18153L0.252799 3.06363C0.222337 2.9997 0.268946 2.92586 0.339757 2.92586V2.65177ZM10.1862 0.137044C10.2287 0.137044 10.2661 0.164868 10.2784 0.205533L10.5408 0.126323C10.4936 -0.0300499 10.3495 -0.137044 10.1862 -0.137044V0.137044ZM3.07355 0.2055C3.08583 0.164852 3.12329 0.137044 3.16575 0.137044V-0.137044C3.00246 -0.137044 2.85843 -0.030114 2.81118 0.126195L3.07355 0.2055ZM10.6119 2.01411C10.8603 2.01411 11.0383 1.77444 10.9665 1.53664L10.7042 1.61585C10.7228 1.67769 10.6765 1.74002 10.6119 1.74002V2.01411ZM2.73946 1.74002C2.67485 1.74002 2.62856 1.67767 2.64725 1.61582L2.38489 1.53652C2.313 1.77434 2.49101 2.01411 2.73946 2.01411V1.74002Z" fill="black" mask="url(#path-1-inside-1_18_600)"/>
<mask id="path-3-inside-2_18_600" fill="white">
<path fill-rule="evenodd" clip-rule="evenodd" d="M207.085 1.57625C207.131 1.72607 207.019 1.87706 206.862 1.87706H198.99C198.833 1.87706 198.721 1.726 198.766 1.57617L199.192 0.165847C199.222 0.0673689 199.313 0 199.416 0H206.436C206.539 0 206.63 0.0674092 206.66 0.165928L207.085 1.57625ZM209.477 3.12258C209.551 2.96771 209.438 2.78882 209.266 2.78882H196.59C196.418 2.78882 196.305 2.96771 196.379 3.12258L197.051 4.5329C197.09 4.61414 197.172 4.66588 197.262 4.66588H208.594C208.684 4.66588 208.766 4.61414 208.805 4.5329L209.477 3.12258ZM200.184 10.8723C200.303 10.8723 200.404 10.782 200.416 10.6631L200.919 5.83569C200.933 5.69798 200.825 5.57812 200.687 5.57812H198.773C198.653 5.57812 198.553 5.66844 198.54 5.78733L198.038 10.6147C198.024 10.7524 198.132 10.8723 198.27 10.8723H200.184ZM205.323 10.6631C205.336 10.782 205.436 10.8723 205.555 10.8723H207.466C207.604 10.8723 207.712 10.7524 207.698 10.6147L207.196 5.78733C207.183 5.66844 207.083 5.57812 206.964 5.57812H205.051C204.913 5.57812 204.805 5.698 204.819 5.83572L205.323 10.6631ZM209.461 13.1954C209.541 13.3507 209.429 13.5356 209.254 13.5356H196.484C196.309 13.5356 196.196 13.3507 196.276 13.1953L196.938 11.9104C196.978 11.8327 197.058 11.7839 197.146 11.7839H208.592C208.68 11.7839 208.76 11.8328 208.8 11.9105L209.461 13.1954ZM201.421 10.6174C201.409 10.7542 201.516 10.8723 201.654 10.8723H204.083C204.221 10.8723 204.328 10.7542 204.316 10.6174L203.869 5.78998C203.858 5.66994 203.757 5.57812 203.636 5.57812H202.101C201.98 5.57812 201.88 5.66994 201.868 5.78998L201.421 10.6174Z"/>
</mask>
<path fill-rule="evenodd" clip-rule="evenodd" d="M207.085 1.57625C207.131 1.72607 207.019 1.87706 206.862 1.87706H198.99C198.833 1.87706 198.721 1.726 198.766 1.57617L199.192 0.165847C199.222 0.0673689 199.313 0 199.416 0H206.436C206.539 0 206.63 0.0674092 206.66 0.165928L207.085 1.57625ZM209.477 3.12258C209.551 2.96771 209.438 2.78882 209.266 2.78882H196.59C196.418 2.78882 196.305 2.96771 196.379 3.12258L197.051 4.5329C197.09 4.61414 197.172 4.66588 197.262 4.66588H208.594C208.684 4.66588 208.766 4.61414 208.805 4.5329L209.477 3.12258ZM200.184 10.8723C200.303 10.8723 200.404 10.782 200.416 10.6631L200.919 5.83569C200.933 5.69798 200.825 5.57812 200.687 5.57812H198.773C198.653 5.57812 198.553 5.66844 198.54 5.78733L198.038 10.6147C198.024 10.7524 198.132 10.8723 198.27 10.8723H200.184ZM205.323 10.6631C205.336 10.782 205.436 10.8723 205.555 10.8723H207.466C207.604 10.8723 207.712 10.7524 207.698 10.6147L207.196 5.78733C207.183 5.66844 207.083 5.57812 206.964 5.57812H205.051C204.913 5.57812 204.805 5.698 204.819 5.83572L205.323 10.6631ZM209.461 13.1954C209.541 13.3507 209.429 13.5356 209.254 13.5356H196.484C196.309 13.5356 196.196 13.3507 196.276 13.1953L196.938 11.9104C196.978 11.8327 197.058 11.7839 197.146 11.7839H208.592C208.68 11.7839 208.76 11.8328 208.8 11.9105L209.461 13.1954ZM201.421 10.6174C201.409 10.7542 201.516 10.8723 201.654 10.8723H204.083C204.221 10.8723 204.328 10.7542 204.316 10.6174L203.869 5.78998C203.858 5.66994 203.757 5.57812 203.636 5.57812H202.101C201.98 5.57812 201.88 5.66994 201.868 5.78998L201.421 10.6174Z" fill="#00979C"/>
<path d="M201.868 5.78998L201.732 5.77734L201.868 5.78998ZM203.869 5.78998L204.005 5.77734L203.869 5.78998ZM201.421 10.6174L201.285 10.6047L201.421 10.6174ZM204.316 10.6174L204.452 10.6047L204.316 10.6174ZM208.8 11.9105L208.922 11.8477L208.8 11.9105ZM196.938 11.9104L196.817 11.8476L196.938 11.9104ZM209.461 13.1954L209.339 13.2582L209.461 13.1954ZM196.276 13.1953L196.154 13.1326L196.276 13.1953ZM204.819 5.83572L204.956 5.82149L204.819 5.83572ZM207.196 5.78733L207.332 5.77315L207.196 5.78733ZM205.323 10.6631L205.187 10.6773L205.323 10.6631ZM207.698 10.6147L207.834 10.6005L207.698 10.6147ZM200.416 10.6631L200.28 10.6489L200.416 10.6631ZM200.919 5.83569L201.055 5.8499L200.919 5.83569ZM208.805 4.5329L208.681 4.47395L208.805 4.5329ZM197.051 4.5329L196.927 4.59185L197.051 4.5329ZM209.477 3.12258L209.601 3.18153L209.477 3.12258ZM196.379 3.12258L196.255 3.18153L196.379 3.12258ZM206.66 0.165928L206.528 0.205533L206.66 0.165928ZM199.192 0.165847L199.061 0.126195L199.192 0.165847ZM207.085 1.57625L206.954 1.61585L207.085 1.57625ZM198.766 1.57617L198.897 1.61582L198.766 1.57617ZM198.99 2.01411H206.862V1.74002H198.99V2.01411ZM199.061 0.126195L198.635 1.53652L198.897 1.61582L199.324 0.2055L199.061 0.126195ZM206.436 -0.137044H199.416V0.137044H206.436V-0.137044ZM207.217 1.53664L206.791 0.126323L206.528 0.205533L206.954 1.61585L207.217 1.53664ZM196.59 2.92586H209.266V2.65177H196.59V2.92586ZM197.175 4.47395L196.503 3.06363L196.255 3.18153L196.927 4.59185L197.175 4.47395ZM208.594 4.52884H197.262V4.80293H208.594V4.52884ZM209.353 3.06363L208.681 4.47395L208.929 4.59185L209.601 3.18153L209.353 3.06363ZM200.783 5.82148L200.28 10.6489L200.552 10.6773L201.055 5.8499L200.783 5.82148ZM198.773 5.71517H200.687V5.44108H198.773V5.71517ZM198.174 10.6289L198.677 5.80152L198.404 5.77315L197.902 10.6005L198.174 10.6289ZM200.184 10.7352H198.27V11.0093H200.184V10.7352ZM207.466 10.7352H205.555V11.0093H207.466V10.7352ZM207.059 5.80152L207.562 10.6289L207.834 10.6005L207.332 5.77315L207.059 5.80152ZM205.051 5.71517H206.964V5.44108H205.051V5.71517ZM205.459 10.6489L204.956 5.82149L204.683 5.84995L205.187 10.6773L205.459 10.6489ZM196.484 13.6727H209.254V13.3986H196.484V13.6727ZM196.817 11.8476L196.154 13.1326L196.398 13.2581L197.06 11.9732L196.817 11.8476ZM208.592 11.6469H197.146V11.921H208.592V11.6469ZM209.583 13.1327L208.922 11.8477L208.678 11.9732L209.339 13.2582L209.583 13.1327ZM204.083 10.7352H201.654V11.0093H204.083V10.7352ZM203.732 5.80261L204.179 10.63L204.452 10.6047L204.005 5.77734L203.732 5.80261ZM202.101 5.71517H203.636V5.44108H202.101V5.71517ZM201.558 10.63L202.005 5.80261L201.732 5.77734L201.285 10.6047L201.558 10.63ZM202.101 5.44108C201.91 5.44108 201.75 5.58681 201.732 5.77734L202.005 5.80261C202.01 5.75307 202.051 5.71517 202.101 5.71517V5.44108ZM204.005 5.77734C203.988 5.58681 203.828 5.44108 203.636 5.44108V5.71517C203.686 5.71517 203.728 5.75307 203.732 5.80261L204.005 5.77734ZM201.654 10.7352C201.597 10.7352 201.553 10.6865 201.558 10.63L201.285 10.6047C201.265 10.8219 201.436 11.0093 201.654 11.0093V10.7352ZM204.083 11.0093C204.301 11.0093 204.472 10.8219 204.452 10.6047L204.179 10.63C204.184 10.6865 204.14 10.7352 204.083 10.7352V11.0093ZM208.592 11.921C208.628 11.921 208.661 11.9411 208.678 11.9732L208.922 11.8477C208.858 11.7244 208.731 11.6469 208.592 11.6469V11.921ZM197.06 11.9732C197.077 11.9411 197.11 11.921 197.146 11.921V11.6469C197.007 11.6469 196.88 11.7244 196.817 11.8476L197.06 11.9732ZM209.254 13.6727C209.531 13.6727 209.71 13.3792 209.583 13.1327L209.339 13.2582C209.372 13.3223 209.326 13.3986 209.254 13.3986V13.6727ZM196.484 13.3986C196.412 13.3986 196.365 13.3222 196.398 13.2581L196.154 13.1326C196.027 13.3791 196.206 13.6727 196.484 13.6727V13.3986ZM205.051 5.44108C204.832 5.44108 204.66 5.63135 204.683 5.84995L204.956 5.82149C204.95 5.76465 204.994 5.71517 205.051 5.71517V5.44108ZM207.332 5.77315C207.312 5.58444 207.153 5.44108 206.964 5.44108V5.71517C207.013 5.71517 207.054 5.75245 207.059 5.80152L207.332 5.77315ZM205.555 10.7352C205.506 10.7352 205.465 10.6979 205.459 10.6489L205.187 10.6773C205.206 10.866 205.366 11.0093 205.555 11.0093V10.7352ZM207.466 11.0093C207.686 11.0093 207.857 10.8191 207.834 10.6005L207.562 10.6289C207.568 10.6857 207.523 10.7352 207.466 10.7352V11.0093ZM197.902 10.6005C197.879 10.8191 198.05 11.0093 198.27 11.0093V10.7352C198.213 10.7352 198.168 10.6857 198.174 10.6289L197.902 10.6005ZM198.773 5.44108C198.583 5.44108 198.424 5.58444 198.404 5.77315L198.677 5.80152C198.682 5.75245 198.723 5.71517 198.773 5.71517V5.44108ZM200.28 10.6489C200.275 10.6979 200.233 10.7352 200.184 10.7352V11.0093C200.374 11.0093 200.533 10.866 200.552 10.6773L200.28 10.6489ZM201.055 5.8499C201.078 5.63132 200.907 5.44108 200.687 5.44108V5.71517C200.744 5.71517 200.789 5.76464 200.783 5.82148L201.055 5.8499ZM208.594 4.80293C208.737 4.80293 208.867 4.7208 208.929 4.59185L208.681 4.47395C208.665 4.50748 208.632 4.52884 208.594 4.52884V4.80293ZM196.927 4.59185C196.989 4.7208 197.119 4.80293 197.262 4.80293V4.52884C197.225 4.52884 197.191 4.50748 197.175 4.47395L196.927 4.59185ZM209.266 2.92586C209.337 2.92586 209.384 2.9997 209.353 3.06363L209.601 3.18153C209.718 2.93572 209.539 2.65177 209.266 2.65177V2.92586ZM196.59 2.65177C196.318 2.65177 196.138 2.93572 196.255 3.18153L196.503 3.06363C196.472 2.9997 196.519 2.92586 196.59 2.92586V2.65177ZM206.436 0.137044C206.479 0.137044 206.516 0.164868 206.528 0.205533L206.791 0.126323C206.744 -0.0300499 206.6 -0.137044 206.436 -0.137044V0.137044ZM199.324 0.2055C199.336 0.164852 199.373 0.137044 199.416 0.137044V-0.137044C199.253 -0.137044 199.109 -0.030114 199.061 0.126195L199.324 0.2055ZM206.862 2.01411C207.11 2.01411 207.288 1.77444 207.217 1.53664L206.954 1.61585C206.973 1.67769 206.927 1.74002 206.862 1.74002V2.01411ZM198.99 1.74002C198.925 1.74002 198.879 1.67767 198.897 1.61582L198.635 1.53652C198.563 1.77434 198.741 2.01411 198.99 2.01411V1.74002Z" fill="black" mask="url(#path-3-inside-2_18_600)"/>
<mask id="path-5-inside-3_18_600" fill="white">
<path fill-rule="evenodd" clip-rule="evenodd" d="M403.336 1.57625C403.381 1.72607 403.269 1.87706 403.112 1.87706H395.24C395.083 1.87706 394.971 1.726 395.016 1.57617L395.443 0.165847C395.472 0.0673689 395.563 0 395.666 0H402.686C402.789 0 402.88 0.0674092 402.91 0.165928L403.336 1.57625ZM405.727 3.12258C405.801 2.96771 405.688 2.78882 405.517 2.78882H392.84C392.668 2.78882 392.555 2.96771 392.629 3.12258L393.301 4.5329C393.34 4.61414 393.422 4.66588 393.512 4.66588H404.845C404.935 4.66588 405.016 4.61414 405.055 4.5329L405.727 3.12258ZM396.434 10.8723C396.553 10.8723 396.654 10.782 396.666 10.6631L397.169 5.83569C397.184 5.69798 397.075 5.57812 396.937 5.57812H395.023C394.903 5.57812 394.803 5.66844 394.79 5.78733L394.288 10.6147C394.274 10.7524 394.382 10.8723 394.52 10.8723H396.434ZM401.573 10.6631C401.586 10.782 401.686 10.8723 401.805 10.8723H403.716C403.855 10.8723 403.963 10.7524 403.948 10.6147L403.446 5.78733C403.433 5.66844 403.333 5.57812 403.214 5.57812H401.301C401.163 5.57812 401.055 5.698 401.069 5.83572L401.573 10.6631ZM405.711 13.1954C405.791 13.3507 405.679 13.5356 405.504 13.5356H392.734C392.559 13.5356 392.446 13.3507 392.526 13.1953L393.188 11.9104C393.229 11.8327 393.309 11.7839 393.396 11.7839H404.842C404.93 11.7839 405.01 11.8328 405.05 11.9105L405.711 13.1954ZM397.672 10.6174C397.659 10.7542 397.767 10.8723 397.904 10.8723H400.333C400.471 10.8723 400.578 10.7542 400.566 10.6174L400.119 5.78998C400.108 5.66994 400.007 5.57812 399.886 5.57812H398.351C398.23 5.57812 398.13 5.66994 398.119 5.78998L397.672 10.6174Z"/>
</mask>
<path fill-rule="evenodd" clip-rule="evenodd" d="M403.336 1.57625C403.381 1.72607 403.269 1.87706 403.112 1.87706H395.24C395.083 1.87706 394.971 1.726 395.016 1.57617L395.443 0.165847C395.472 0.0673689 395.563 0 395.666 0H402.686C402.789 0 402.88 0.0674092 402.91 0.165928L403.336 1.57625ZM405.727 3.12258C405.801 2.96771 405.688 2.78882 405.517 2.78882H392.84C392.668 2.78882 392.555 2.96771 392.629 3.12258L393.301 4.5329C393.34 4.61414 393.422 4.66588 393.512 4.66588H404.845C404.935 4.66588 405.016 4.61414 405.055 4.5329L405.727 3.12258ZM396.434 10.8723C396.553 10.8723 396.654 10.782 396.666 10.6631L397.169 5.83569C397.184 5.69798 397.075 5.57812 396.937 5.57812H395.023C394.903 5.57812 394.803 5.66844 394.79 5.78733L394.288 10.6147C394.274 10.7524 394.382 10.8723 394.52 10.8723H396.434ZM401.573 10.6631C401.586 10.782 401.686 10.8723 401.805 10.8723H403.716C403.855 10.8723 403.963 10.7524 403.948 10.6147L403.446 5.78733C403.433 5.66844 403.333 5.57812 403.214 5.57812H401.301C401.163 5.57812 401.055 5.698 401.069 5.83572L401.573 10.6631ZM405.711 13.1954C405.791 13.3507 405.679 13.5356 405.504 13.5356H392.734C392.559 13.5356 392.446 13.3507 392.526 13.1953L393.188 11.9104C393.229 11.8327 393.309 11.7839 393.396 11.7839H404.842C404.93 11.7839 405.01 11.8328 405.05 11.9105L405.711 13.1954ZM397.672 10.6174C397.659 10.7542 397.767 10.8723 397.904 10.8723H400.333C400.471 10.8723 400.578 10.7542 400.566 10.6174L400.119 5.78998C400.108 5.66994 400.007 5.57812 399.886 5.57812H398.351C398.23 5.57812 398.13 5.66994 398.119 5.78998L397.672 10.6174Z" fill="#E1D198"/>
<path d="M398.119 5.78998L397.982 5.77734L398.119 5.78998ZM400.119 5.78998L400.255 5.77734L400.119 5.78998ZM397.672 10.6174L397.535 10.6047L397.672 10.6174ZM400.566 10.6174L400.702 10.6047L400.566 10.6174ZM405.05 11.9105L405.172 11.8477L405.05 11.9105ZM393.188 11.9104L393.067 11.8476L393.188 11.9104ZM405.711 13.1954L405.59 13.2582L405.711 13.1954ZM392.526 13.1953L392.405 13.1326L392.526 13.1953ZM401.069 5.83572L401.206 5.82149L401.069 5.83572ZM403.446 5.78733L403.582 5.77315L403.446 5.78733ZM401.573 10.6631L401.437 10.6773L401.573 10.6631ZM403.948 10.6147L404.085 10.6005L403.948 10.6147ZM396.666 10.6631L396.53 10.6489L396.666 10.6631ZM397.169 5.83569L397.305 5.8499L397.169 5.83569ZM405.055 4.5329L404.931 4.47395L405.055 4.5329ZM393.301 4.5329L393.178 4.59185L393.301 4.5329ZM405.727 3.12258L405.851 3.18153L405.727 3.12258ZM392.629 3.12258L392.506 3.18153L392.629 3.12258ZM402.91 0.165928L402.779 0.205533L402.91 0.165928ZM395.443 0.165847L395.311 0.126195L395.443 0.165847ZM403.336 1.57625L403.204 1.61585L403.336 1.57625ZM395.016 1.57617L395.147 1.61582L395.016 1.57617ZM395.24 2.01411H403.112V1.74002H395.24V2.01411ZM395.311 0.126195L394.885 1.53652L395.147 1.61582L395.574 0.2055L395.311 0.126195ZM402.686 -0.137044H395.666V0.137044H402.686V-0.137044ZM403.467 1.53664L403.041 0.126323L402.779 0.205533L403.204 1.61585L403.467 1.53664ZM392.84 2.92586H405.517V2.65177H392.84V2.92586ZM393.425 4.47395L392.753 3.06363L392.506 3.18153L393.178 4.59185L393.425 4.47395ZM404.845 4.52884H393.512V4.80293H404.845V4.52884ZM405.604 3.06363L404.931 4.47395L405.179 4.59185L405.851 3.18153L405.604 3.06363ZM397.033 5.82148L396.53 10.6489L396.802 10.6773L397.305 5.8499L397.033 5.82148ZM395.023 5.71517H396.937V5.44108H395.023V5.71517ZM394.424 10.6289L394.927 5.80152L394.654 5.77315L394.152 10.6005L394.424 10.6289ZM396.434 10.7352H394.52V11.0093H396.434V10.7352ZM403.716 10.7352H401.805V11.0093H403.716V10.7352ZM403.309 5.80152L403.812 10.6289L404.085 10.6005L403.582 5.77315L403.309 5.80152ZM401.301 5.71517H403.214V5.44108H401.301V5.71517ZM401.709 10.6489L401.206 5.82149L400.933 5.84995L401.437 10.6773L401.709 10.6489ZM392.734 13.6727H405.504V13.3986H392.734V13.6727ZM393.067 11.8476L392.405 13.1326L392.648 13.2581L393.31 11.9732L393.067 11.8476ZM404.842 11.6469H393.396V11.921H404.842V11.6469ZM405.833 13.1327L405.172 11.8477L404.928 11.9732L405.59 13.2582L405.833 13.1327ZM400.333 10.7352H397.904V11.0093H400.333V10.7352ZM399.982 5.80261L400.429 10.63L400.702 10.6047L400.255 5.77734L399.982 5.80261ZM398.351 5.71517H399.886V5.44108H398.351V5.71517ZM397.808 10.63L398.255 5.80261L397.982 5.77734L397.535 10.6047L397.808 10.63ZM398.351 5.44108C398.16 5.44108 398 5.58681 397.982 5.77734L398.255 5.80261C398.26 5.75307 398.301 5.71517 398.351 5.71517V5.44108ZM400.255 5.77734C400.238 5.58681 400.078 5.44108 399.886 5.44108V5.71517C399.936 5.71517 399.978 5.75307 399.982 5.80261L400.255 5.77734ZM397.904 10.7352C397.847 10.7352 397.803 10.6865 397.808 10.63L397.535 10.6047C397.515 10.8219 397.686 11.0093 397.904 11.0093V10.7352ZM400.333 11.0093C400.551 11.0093 400.722 10.8219 400.702 10.6047L400.429 10.63C400.435 10.6865 400.39 10.7352 400.333 10.7352V11.0093ZM404.842 11.921C404.878 11.921 404.911 11.9411 404.928 11.9732L405.172 11.8477C405.108 11.7244 404.981 11.6469 404.842 11.6469V11.921ZM393.31 11.9732C393.327 11.9411 393.36 11.921 393.396 11.921V11.6469C393.257 11.6469 393.13 11.7244 393.067 11.8476L393.31 11.9732ZM405.504 13.6727C405.781 13.6727 405.96 13.3792 405.833 13.1327L405.59 13.2582C405.623 13.3223 405.576 13.3986 405.504 13.3986V13.6727ZM392.734 13.3986C392.662 13.3986 392.615 13.3222 392.648 13.2581L392.405 13.1326C392.278 13.3791 392.457 13.6727 392.734 13.6727V13.3986ZM401.301 5.44108C401.082 5.44108 400.91 5.63135 400.933 5.84995L401.206 5.82149C401.2 5.76465 401.244 5.71517 401.301 5.71517V5.44108ZM403.582 5.77315C403.562 5.58444 403.403 5.44108 403.214 5.44108V5.71517C403.263 5.71517 403.304 5.75245 403.309 5.80152L403.582 5.77315ZM401.805 10.7352C401.756 10.7352 401.715 10.6979 401.709 10.6489L401.437 10.6773C401.457 10.866 401.616 11.0093 401.805 11.0093V10.7352ZM403.716 11.0093C403.936 11.0093 404.107 10.8191 404.085 10.6005L403.812 10.6289C403.818 10.6857 403.773 10.7352 403.716 10.7352V11.0093ZM394.152 10.6005C394.129 10.8191 394.3 11.0093 394.52 11.0093V10.7352C394.463 10.7352 394.418 10.6857 394.424 10.6289L394.152 10.6005ZM395.023 5.44108C394.833 5.44108 394.674 5.58444 394.654 5.77315L394.927 5.80152C394.932 5.75245 394.973 5.71517 395.023 5.71517V5.44108ZM396.53 10.6489C396.525 10.6979 396.483 10.7352 396.434 10.7352V11.0093C396.624 11.0093 396.783 10.866 396.802 10.6773L396.53 10.6489ZM397.305 5.8499C397.328 5.63132 397.157 5.44108 396.937 5.44108V5.71517C396.994 5.71517 397.039 5.76464 397.033 5.82148L397.305 5.8499ZM404.845 4.80293C404.987 4.80293 405.117 4.7208 405.179 4.59185L404.931 4.47395C404.916 4.50748 404.882 4.52884 404.845 4.52884V4.80293ZM393.178 4.59185C393.239 4.7208 393.369 4.80293 393.512 4.80293V4.52884C393.475 4.52884 393.441 4.50748 393.425 4.47395L393.178 4.59185ZM405.517 2.92586C405.587 2.92586 405.634 2.9997 405.604 3.06363L405.851 3.18153C405.968 2.93572 405.789 2.65177 405.517 2.65177V2.92586ZM392.84 2.65177C392.568 2.65177 392.388 2.93572 392.506 3.18153L392.753 3.06363C392.722 2.9997 392.769 2.92586 392.84 2.92586V2.65177ZM402.686 0.137044C402.729 0.137044 402.766 0.164868 402.779 0.205533L403.041 0.126323C402.994 -0.0300499 402.85 -0.137044 402.686 -0.137044V0.137044ZM395.574 0.2055C395.586 0.164852 395.623 0.137044 395.666 0.137044V-0.137044C395.503 -0.137044 395.359 -0.030114 395.311 0.126195L395.574 0.2055ZM403.112 2.01411C403.36 2.01411 403.538 1.77444 403.467 1.53664L403.204 1.61585C403.223 1.67769 403.177 1.74002 403.112 1.74002V2.01411ZM395.24 1.74002C395.175 1.74002 395.129 1.67767 395.147 1.61582L394.885 1.53652C394.813 1.77434 394.991 2.01411 395.24 2.01411V1.74002Z" fill="black" mask="url(#path-5-inside-3_18_600)"/>
</svg>
