<svg width="14" height="14" viewBox="0 0 14 14" fill="none" xmlns="http://www.w3.org/2000/svg">
<mask id="path-1-inside-1_4_123" fill="white">
<path fill-rule="evenodd" clip-rule="evenodd" d="M10.8353 1.57625C10.8806 1.72607 10.7684 1.87706 10.6119 1.87706H2.73946C2.58293 1.87706 2.47078 1.726 2.51607 1.57617L2.94236 0.165847C2.97213 0.0673689 3.06288 0 3.16575 0H10.1862C10.2891 0 10.3799 0.0674092 10.4096 0.165928L10.8353 1.57625ZM13.2271 3.12258C13.3009 2.96771 13.188 2.78882 13.0164 2.78882H0.339757C0.168202 2.78882 0.0552837 2.96771 0.129083 3.12258L0.801127 4.5329C0.839839 4.61414 0.921811 4.66588 1.0118 4.66588H12.3444C12.4344 4.66588 12.5163 4.61414 12.555 4.5329L13.2271 3.12258ZM3.93373 10.8721C4.05325 10.8721 4.15346 10.7818 4.16585 10.663L4.669 5.83557C4.68336 5.69786 4.57535 5.578 4.43689 5.578H2.52246C2.40292 5.578 2.30272 5.66832 2.29034 5.78721L1.78786 10.6146C1.77353 10.7523 1.88153 10.8721 2.01998 10.8721H3.93373ZM9.07302 10.663C9.08543 10.7818 9.18562 10.8721 9.30513 10.8721H11.216C11.3544 10.8721 11.4624 10.7523 11.4481 10.6146L10.9456 5.78721C10.9332 5.66832 10.833 5.578 10.7135 5.578H8.8013C8.66283 5.578 8.55482 5.69788 8.56919 5.8356L9.07302 10.663ZM13.2112 13.1954C13.2912 13.3507 13.1785 13.5356 13.0038 13.5356H0.233682C0.0589569 13.5356 -0.0538005 13.3506 0.0262323 13.1953L0.688342 11.9104C0.728363 11.8327 0.808418 11.7839 0.895791 11.7839H12.3422C12.4296 11.7839 12.5097 11.8327 12.5497 11.9104L13.2112 13.1954ZM5.17138 10.6172C5.15871 10.754 5.26637 10.8721 5.40375 10.8721H7.83326C7.97065 10.8721 8.07831 10.754 8.06564 10.6172L7.61862 5.78986C7.6075 5.66982 7.50679 5.578 7.38624 5.578H5.85078C5.73023 5.578 5.62952 5.66982 5.6184 5.78986L5.17138 10.6172Z"/>
</mask>
<path fill-rule="evenodd" clip-rule="evenodd" d="M10.8353 1.57625C10.8806 1.72607 10.7684 1.87706 10.6119 1.87706H2.73946C2.58293 1.87706 2.47078 1.726 2.51607 1.57617L2.94236 0.165847C2.97213 0.0673689 3.06288 0 3.16575 0H10.1862C10.2891 0 10.3799 0.0674092 10.4096 0.165928L10.8353 1.57625ZM13.2271 3.12258C13.3009 2.96771 13.188 2.78882 13.0164 2.78882H0.339757C0.168202 2.78882 0.0552837 2.96771 0.129083 3.12258L0.801127 4.5329C0.839839 4.61414 0.921811 4.66588 1.0118 4.66588H12.3444C12.4344 4.66588 12.5163 4.61414 12.555 4.5329L13.2271 3.12258ZM3.93373 10.8721C4.05325 10.8721 4.15346 10.7818 4.16585 10.663L4.669 5.83557C4.68336 5.69786 4.57535 5.578 4.43689 5.578H2.52246C2.40292 5.578 2.30272 5.66832 2.29034 5.78721L1.78786 10.6146C1.77353 10.7523 1.88153 10.8721 2.01998 10.8721H3.93373ZM9.07302 10.663C9.08543 10.7818 9.18562 10.8721 9.30513 10.8721H11.216C11.3544 10.8721 11.4624 10.7523 11.4481 10.6146L10.9456 5.78721C10.9332 5.66832 10.833 5.578 10.7135 5.578H8.8013C8.66283 5.578 8.55482 5.69788 8.56919 5.8356L9.07302 10.663ZM13.2112 13.1954C13.2912 13.3507 13.1785 13.5356 13.0038 13.5356H0.233682C0.0589569 13.5356 -0.0538005 13.3506 0.0262323 13.1953L0.688342 11.9104C0.728363 11.8327 0.808418 11.7839 0.895791 11.7839H12.3422C12.4296 11.7839 12.5097 11.8327 12.5497 11.9104L13.2112 13.1954ZM5.17138 10.6172C5.15871 10.754 5.26637 10.8721 5.40375 10.8721H7.83326C7.97065 10.8721 8.07831 10.754 8.06564 10.6172L7.61862 5.78986C7.6075 5.66982 7.50679 5.578 7.38624 5.578H5.85078C5.73023 5.578 5.62952 5.66982 5.6184 5.78986L5.17138 10.6172Z" fill="#98DDDF"/>
<path d="M5.6184 5.78986L5.48194 5.77722L5.6184 5.78986ZM7.61862 5.78986L7.75508 5.77722L7.61862 5.78986ZM5.17138 10.6172L5.03492 10.6046L5.17138 10.6172ZM8.06564 10.6172L8.2021 10.6046L8.06564 10.6172ZM12.5497 11.9104L12.6715 11.8477L12.5497 11.9104ZM0.688342 11.9104L0.566519 11.8476L0.688342 11.9104ZM13.2112 13.1954L13.0894 13.2581L13.2112 13.1954ZM0.0262323 13.1953L-0.09559 13.1325L0.0262323 13.1953ZM8.56919 5.8356L8.70549 5.82137L8.56919 5.8356ZM10.9456 5.78721L11.0819 5.77302L10.9456 5.78721ZM9.07302 10.663L8.93672 10.6772L9.07302 10.663ZM11.4481 10.6146L11.5844 10.6004L11.4481 10.6146ZM4.16585 10.663L4.02954 10.6487L4.16585 10.663ZM4.669 5.83557L4.80531 5.84977L4.669 5.83557ZM12.555 4.5329L12.4313 4.47395L12.555 4.5329ZM0.801127 4.5329L0.677411 4.59185L0.801127 4.5329ZM13.2271 3.12258L13.3508 3.18153L13.2271 3.12258ZM0.129083 3.12258L0.00536635 3.18153L0.129083 3.12258ZM10.4096 0.165928L10.2784 0.205533L10.4096 0.165928ZM2.94236 0.165847L2.81118 0.126195L2.94236 0.165847ZM10.8353 1.57625L10.7042 1.61585L10.8353 1.57625ZM2.51607 1.57617L2.64725 1.61582L2.51607 1.57617ZM2.73946 2.01411H10.6119V1.74002H2.73946V2.01411ZM2.81118 0.126195L2.38489 1.53652L2.64725 1.61582L3.07355 0.2055L2.81118 0.126195ZM10.1862 -0.137044H3.16575V0.137044H10.1862V-0.137044ZM10.9665 1.53664L10.5408 0.126323L10.2784 0.205533L10.7042 1.61585L10.9665 1.53664ZM0.339757 2.92586H13.0164V2.65177H0.339757V2.92586ZM0.924843 4.47395L0.252799 3.06363L0.00536635 3.18153L0.677411 4.59185L0.924843 4.47395ZM12.3444 4.52884H1.0118V4.80293H12.3444V4.52884ZM13.1034 3.06363L12.4313 4.47395L12.6788 4.59185L13.3508 3.18153L13.1034 3.06363ZM4.5327 5.82136L4.02954 10.6487L4.30215 10.6772L4.80531 5.84977L4.5327 5.82136ZM2.52246 5.71505H4.43689V5.44096H2.52246V5.71505ZM1.92417 10.6288L2.42665 5.8014L2.15403 5.77302L1.65155 10.6004L1.92417 10.6288ZM3.93373 10.7351H2.01998V11.0092H3.93373V10.7351ZM11.216 10.7351H9.30513V11.0092H11.216V10.7351ZM10.8093 5.8014L11.3118 10.6288L11.5844 10.6004L11.0819 5.77302L10.8093 5.8014ZM8.8013 5.71505H10.7135V5.44096H8.8013V5.71505ZM9.20933 10.6488L8.70549 5.82137L8.43289 5.84982L8.93672 10.6772L9.20933 10.6488ZM0.233682 13.6726H13.0038V13.3985H0.233682V13.6726ZM0.566519 11.8476L-0.09559 13.1325L0.148055 13.2581L0.810164 11.9731L0.566519 11.8476ZM12.3422 11.6468H0.895791V11.9209H12.3422V11.6468ZM13.3331 13.1326L12.6715 11.8477L12.4278 11.9732L13.0894 13.2581L13.3331 13.1326ZM7.83326 10.7351H5.40375V11.0092H7.83326V10.7351ZM7.48215 5.80249L7.92918 10.6299L8.2021 10.6046L7.75508 5.77722L7.48215 5.80249ZM5.85078 5.71505H7.38624V5.44096H5.85078V5.71505ZM5.30784 10.6299L5.75486 5.80249L5.48194 5.77722L5.03492 10.6046L5.30784 10.6299ZM5.85078 5.44096C5.65944 5.44096 5.49958 5.58669 5.48194 5.77722L5.75486 5.80249C5.75945 5.75295 5.80102 5.71505 5.85078 5.71505V5.44096ZM7.75508 5.77722C7.73743 5.58669 7.57758 5.44096 7.38624 5.44096V5.71505C7.436 5.71505 7.47757 5.75295 7.48215 5.80249L7.75508 5.77722ZM5.40375 10.7351C5.34705 10.7351 5.30261 10.6863 5.30784 10.6299L5.03492 10.6046C5.01481 10.8217 5.18569 11.0092 5.40375 11.0092V10.7351ZM7.83326 11.0092C8.05133 11.0092 8.22221 10.8217 8.2021 10.6046L7.92918 10.6299C7.93441 10.6863 7.88997 10.7351 7.83326 10.7351V11.0092ZM12.3422 11.9209C12.3783 11.9209 12.4113 11.9411 12.4278 11.9732L12.6715 11.8477C12.608 11.7244 12.4809 11.6468 12.3422 11.6468V11.9209ZM0.810164 11.9731C0.826683 11.9411 0.859727 11.9209 0.895791 11.9209V11.6468C0.757108 11.6468 0.630043 11.7243 0.566519 11.8476L0.810164 11.9731ZM13.0038 13.6726C13.281 13.6726 13.46 13.3792 13.3331 13.1326L13.0894 13.2581C13.1224 13.3222 13.0759 13.3985 13.0038 13.3985V13.6726ZM0.233682 13.3985C0.161562 13.3985 0.11502 13.3222 0.148055 13.2581L-0.09559 13.1325C-0.222621 13.3791 -0.0436482 13.6726 0.233682 13.6726V13.3985ZM8.8013 5.44096C8.58152 5.44096 8.41007 5.63123 8.43289 5.84982L8.70549 5.82137C8.69956 5.76453 8.74414 5.71505 8.8013 5.71505V5.44096ZM11.0819 5.77302C11.0623 5.58432 10.9032 5.44096 10.7135 5.44096V5.71505C10.7628 5.71505 10.8042 5.75233 10.8093 5.8014L11.0819 5.77302ZM9.30513 10.7351C9.2558 10.7351 9.21445 10.6978 9.20933 10.6488L8.93672 10.6772C8.95641 10.8659 9.11544 11.0092 9.30513 11.0092V10.7351ZM11.216 11.0092C11.4357 11.0092 11.6071 10.819 11.5844 10.6004L11.3118 10.6288C11.3177 10.6856 11.2731 10.7351 11.216 10.7351V11.0092ZM1.65155 10.6004C1.6288 10.819 1.80023 11.0092 2.01998 11.0092V10.7351C1.96283 10.7351 1.91825 10.6856 1.92417 10.6288L1.65155 10.6004ZM2.52246 5.44096C2.33273 5.44096 2.17367 5.58432 2.15403 5.77302L2.42665 5.8014C2.43176 5.75233 2.47312 5.71505 2.52246 5.71505V5.44096ZM4.02954 10.6487C4.02443 10.6978 3.98307 10.7351 3.93373 10.7351V11.0092C4.12344 11.0092 4.28249 10.8658 4.30215 10.6772L4.02954 10.6487ZM4.80531 5.84977C4.82809 5.63119 4.65665 5.44096 4.43689 5.44096V5.71505C4.49404 5.71505 4.53862 5.76452 4.5327 5.82136L4.80531 5.84977ZM12.3444 4.80293C12.4872 4.80293 12.6173 4.7208 12.6788 4.59185L12.4313 4.47395C12.4154 4.50748 12.3815 4.52884 12.3444 4.52884V4.80293ZM0.677411 4.59185C0.738856 4.7208 0.868965 4.80293 1.0118 4.80293V4.52884C0.974657 4.52884 0.940822 4.50748 0.924843 4.47395L0.677411 4.59185ZM13.0164 2.92586C13.0872 2.92586 13.1338 2.9997 13.1034 3.06363L13.3508 3.18153C13.4679 2.93572 13.2887 2.65177 13.0164 2.65177V2.92586ZM0.339757 2.65177C0.0674578 2.65177 -0.11177 2.93572 0.00536635 3.18153L0.252799 3.06363C0.222337 2.9997 0.268946 2.92586 0.339757 2.92586V2.65177ZM10.1862 0.137044C10.2287 0.137044 10.2661 0.164868 10.2784 0.205533L10.5408 0.126323C10.4936 -0.0300499 10.3495 -0.137044 10.1862 -0.137044V0.137044ZM3.07355 0.2055C3.08583 0.164852 3.12329 0.137044 3.16575 0.137044V-0.137044C3.00246 -0.137044 2.85843 -0.030114 2.81118 0.126195L3.07355 0.2055ZM10.6119 2.01411C10.8603 2.01411 11.0383 1.77444 10.9665 1.53664L10.7042 1.61585C10.7228 1.67769 10.6765 1.74002 10.6119 1.74002V2.01411ZM2.73946 1.74002C2.67485 1.74002 2.62856 1.67767 2.64725 1.61582L2.38489 1.53652C2.313 1.77434 2.49101 2.01411 2.73946 2.01411V1.74002Z" fill="black" mask="url(#path-1-inside-1_4_123)"/>
</svg>
